HIERARCHY
ROOT hip
{
  OFFSET 20.916 84.2312 -62.7276
  CHANNELS 6 Xposition Yposition Zposition Zrotation Xrotation Yrotation
  JOINT abdomen
  {
    OFFSET 0 20.6881 -0.73152
    CHANNELS 3 Zrotation Xrotation Yrotation
    JOINT chest
    {
      OFFSET 0 11.7043 -0.48768
      CHANNELS 3 Zrotation Xrotation Yrotation
      JOINT neck
      {
        OFFSET 0 22.1894 -2.19456
        CHANNELS 3 Zrotation Xrotation Yrotation
        JOINT head
        {
          OFFSET -0.24384 7.07133 1.2192
          CHANNELS 3 Zrotation Xrotation Yrotation
          JOINT leftEye
          {
            OFFSET 4.14528 8.04674 8.04672
            CHANNELS 3 Zrotation Xrotation Yrotation
            End Site
            {
              OFFSET 1 0 0
            }
          }
          JOINT rightEye
          {
            OFFSET -3.6576 8.04674 8.04672
            CHANNELS 3 Zrotation Xrotation Yrotation
            End Site
            {
              OFFSET 1 0 0
            }
          }
        }
      }
      JOINT rCollar
      {
        OFFSET -2.68224 19.2634 -4.8768
        CHANNELS 3 Zrotation Xrotation Yrotation
        JOINT rShldr
        {
          OFFSET -8.77824 -1.95073 1.46304
          CHANNELS 3 Zrotation Xrotation Yrotation
          JOINT rForeArm
          {
            OFFSET -28.1742 -1.7115 0.48768
            CHANNELS 3 Zrotation Xrotation Yrotation
            JOINT rHand
            {
              OFFSET -22.5879 0.773209 7.07136
              CHANNELS 3 Zrotation Xrotation Yrotation
              JOINT rThumb1
              {
                OFFSET -1.2192 -0.487915 3.41376
                CHANNELS 3 Zrotation Xrotation Yrotation
                JOINT rThumb2
                {
                  OFFSET -3.37035 -0.52449 3.41376
                  CHANNELS 3 Zrotation Xrotation Yrotation
                  End Site
                  {
                    OFFSET -1.78271 -1.18214 1.43049
                  }
                }
              }
              JOINT rIndex1
              {
                OFFSET -7.75947 0.938293 5.60832
                CHANNELS 3 Zrotation Xrotation Yrotation
                JOINT rIndex2
                {
                  OFFSET -2.54057 -0.884171 1.56538
                  CHANNELS 3 Zrotation Xrotation Yrotation
                  End Site
                  {
                    OFFSET -1.62519 -0.234802 1.16502
                  }
                }
              }
              JOINT rMid1
              {
                OFFSET -8.24714 1.18213 3.41376
                CHANNELS 3 Zrotation Xrotation Yrotation
                JOINT rMid2
                {
                  OFFSET -3.10165 -0.590103 1.0647
                  CHANNELS 3 Zrotation Xrotation Yrotation
                  End Site
                  {
                    OFFSET -2.48547 -0.328903 0.83742
                  }
                }
              }
              JOINT rRing1
              {
                OFFSET -8.82822 0.546677 1.51678
                CHANNELS 3 Zrotation Xrotation Yrotation
                JOINT rRing2
                {
                  OFFSET -2.60934 -0.819778 -0.0198488
                  CHANNELS 3 Zrotation Xrotation Yrotation
                  End Site
                  {
                    OFFSET -2.33842 -0.294052 0.168128
                  }
                }
              }
              JOINT rPinky1
              {
                OFFSET -8.27202 -0.0477905 -0.4584
                CHANNELS 3 Zrotation Xrotation Yrotation
                JOINT rPinky2
                {
                  OFFSET -1.82734 -0.647385 -0.700984
                  CHANNELS 3 Zrotation Xrotation Yrotation
                  End Site
                  {
                    OFFSET -1.69225 -0.51767 -0.607171
                  }
                }
              }
            }
          }
        }
      }
      JOINT lCollar
      {
        OFFSET 2.68224 19.2634 -4.8768
        CHANNELS 3 Zrotation Xrotation Yrotation
        JOINT lShldr
        {
          OFFSET 8.77824 -1.95073 1.46304
          CHANNELS 3 Zrotation Xrotation Yrotation
          JOINT lForeArm
          {
            OFFSET 28.1742 -1.7115 0.48768
            CHANNELS 3 Zrotation Xrotation Yrotation
            JOINT lHand
            {
              OFFSET 22.5879 0.773209 7.07136
              CHANNELS 3 Zrotation Xrotation Yrotation
              JOINT lThumb1
              {
                OFFSET 1.2192 -0.487915 3.41376
                CHANNELS 3 Zrotation Xrotation Yrotation
                JOINT lThumb2
                {
                  OFFSET 3.37035 -0.52449 3.41376
                  CHANNELS 3 Zrotation Xrotation Yrotation
                  End Site
                  {
                    OFFSET 1.78271 -1.18214 1.43049
                  }
                }
              }
              JOINT lIndex1
              {
                OFFSET 7.75947 0.938293 5.60832
                CHANNELS 3 Zrotation Xrotation Yrotation
                JOINT lIndex2
                {
                  OFFSET 2.54057 -0.884171 1.56538
                  CHANNELS 3 Zrotation Xrotation Yrotation
                  End Site
                  {
                    OFFSET 1.62519 -0.234802 1.16502
                  }
                }
              }
              JOINT lMid1
              {
                OFFSET 8.24714 1.18213 3.41376
                CHANNELS 3 Zrotation Xrotation Yrotation
                JOINT lMid2
                {
                  OFFSET 3.10165 -0.590103 1.0647
                  CHANNELS 3 Zrotation Xrotation Yrotation
                  End Site
                  {
                    OFFSET 2.48547 -0.328903 0.83742
                  }
                }
              }
              JOINT lRing1
              {
                OFFSET 8.82822 0.546677 1.51678
                CHANNELS 3 Zrotation Xrotation Yrotation
                JOINT lRing2
                {
                  OFFSET 2.60934 -0.819778 -0.0198488
                  CHANNELS 3 Zrotation Xrotation Yrotation
                  End Site
                  {
                    OFFSET 2.33842 -0.294052 0.168128
                  }
                }
              }
              JOINT lPinky1
              {
                OFFSET 8.27202 -0.0477905 -0.4584
                CHANNELS 3 Zrotation Xrotation Yrotation
                JOINT lPinky2
                {
                  OFFSET 1.82734 -0.647385 -0.700984
                  CHANNELS 3 Zrotation Xrotation Yrotation
                  End Site
                  {
                    OFFSET 1.69225 -0.51767 -0.607171
                  }
                }
              }
            }
          }
        }
      }
    }
  }
  JOINT rButtock
  {
    OFFSET -8.77824 4.35084 1.2192
    CHANNELS 3 Zrotation Xrotation Yrotation
    JOINT rThigh
    {
      OFFSET 0 -1.70687 -2.19456
      CHANNELS 3 Zrotation Xrotation Yrotation
      JOINT rShin
      {
        OFFSET 0 -36.8199 0.73152
        CHANNELS 3 Zrotation Xrotation Yrotation
        JOINT rFoot
        {
          OFFSET 0.73152 -45.1104 -5.12064
          CHANNELS 3 Zrotation Xrotation Yrotation
          End Site
          {
            OFFSET -1.1221 -3.69964 12.103
          }
        }
      }
    }
  }
  JOINT lButtock
  {
    OFFSET 8.77824 4.35084 1.2192
    CHANNELS 3 Zrotation Xrotation Yrotation
    JOINT lThigh
    {
      OFFSET 0 -1.70687 -2.19456
      CHANNELS 3 Zrotation Xrotation Yrotation
      JOINT lShin
      {
        OFFSET 0 -36.8199 0.73152
        CHANNELS 3 Zrotation Xrotation Yrotation
        JOINT lFoot
        {
          OFFSET -0.73152 -45.1104 -5.12064
          CHANNELS 3 Zrotation Xrotation Yrotation
          End Site
          {
            OFFSET 1.1221 -3.69964 12.103
          }
        }
      }
    }
  }
}
MOTION
Frames:	9
Frame Time:	0.00833333
60.1629 80.2395 11.861 1.3951 8.34613 -45.6838 9.07731 -0.0941342 31.929 -2.60064 3.58504 9.21484 -4.14042 7.66449 -4.88132 2.39961 -13.7218 -8.68857 -0 0 0 -0 0 0 -1.13358e-013 8.24753e-015 9.32828e-014 29.7096 -8.46076 22.7165 -15.6649 -8.37522 28.9782 -0.229732 13.5185 1.93638 -2.03119e-010 4.51012e-010 2.29396e-010 -3.47702e-010 8.1842e-010 4.00507e-010 -2.03112e-010 4.51018e-010 2.29375e-010 7.73091 5.47488 0.417314 -2.0312e-010 4.51014e-010 2.29396e-010 2.90554 0.965183 0.102902 -2.03108e-010 4.51015e-010 2.29393e-010 10.2786 0.731801 0.0259123 -2.03123e-010 4.51014e-010 2.294e-010 2.22167 -0.733487 -0.20892 -1.13373e-013 8.25238e-015 9.3053e-014 -22.9537 -9.81621 31.3165 13.9507 -6.91358 -25.4573 2.90977 -42.6608 7.44162 -4.78415e-010 1.17924e-009 8.44743e-010 -8.54504e-010 2.01695e-009 1.44599e-009 -4.78425e-010 1.17924e-009 8.4475e-010 -7.73091 5.47488 -0.417314 -4.78416e-010 1.17923e-009 8.44739e-010 -2.90554 0.965183 -0.102902 -4.78417e-010 1.17923e-009 8.44746e-010 -10.2786 0.731801 -0.0259123 -4.78407e-010 1.17924e-009 8.44735e-010 -2.22167 -0.733487 0.20892 -2.03217e-016 0 -3.88251e-019 -3.93712 5.30799 7.38154 0.102341 18.5296 1.12236 -36.6942 -28.7988 -56.2035 2.03217e-016 0 3.88251e-019 6.78122 -39.0288 -19.8867 0.372407 42.1016 -0.916609 -2.41562 -12.2727 -8.85491 
60.2171 80.529 11.5219 2.21061 8.2708 -48.9071 7.9898 -0.190435 30.0192 -2.11247 3.73246 8.66792 -5.29758 8.64735 -6.32045 5.24339 -15.2103 -11.029 -0 0 0 -0 0 0 -5.54093e-014 2.20095e-014 -1.48843e-013 28.5619 -9.83892 20.5663 -15.4442 -8.1783 28.5133 -0.231514 13.5719 1.9443 -3.78175e-010 8.71536e-010 5.12088e-010 -6.47972e-010 1.52527e-009 8.94814e-010 -3.78169e-010 8.71541e-010 5.12066e-010 7.73091 5.47488 0.417314 -3.78176e-010 8.71538e-010 5.12088e-010 2.90554 0.965183 0.102902 -3.78164e-010 8.71537e-010 5.12086e-010 10.2786 0.731801 0.0259123 -3.78178e-010 8.71538e-010 5.1209e-010 2.22167 -0.733487 -0.20892 -5.54709e-014 2.20217e-014 -1.49059e-013 -21.2953 -9.68542 30.061 14.0638 -7.00542 -25.6837 2.94392 -42.8539 7.49216 7.15844e-011 6.85354e-010 8.00247e-010 1.0022e-010 1.16618e-009 1.38606e-009 7.15761e-011 6.8535e-010 8.00258e-010 -7.73091 5.47488 -0.417314 7.15843e-011 6.8535e-010 8.00248e-010 -2.90554 0.965183 -0.102902 7.15849e-011 6.8535e-010 8.00253e-010 -10.2786 0.731801 -0.0259123 7.15905e-011 6.85355e-010 8.00242e-010 -2.22167 -0.733487 0.20892 -2.03217e-016 0 -3.88251e-019 -4.77237 3.25168 7.44182 0.106906 19.0439 1.10427 -37.1621 -29.3221 -56.1569 2.03217e-016 0 3.88251e-019 8.06237 -37.9913 -17.9353 0.348949 41.0566 -0.895805 -1.77235 -12.2104 -6.88567 
60.2401 80.8091 11.1516 3.00781 8.1338 -52.0712 6.95143 -0.292892 28.0088 -1.60587 3.87876 8.08882 -6.31615 9.58949 -7.63724 7.67676 -16.4175 -13.2172 -0 0 0 -0 0 0 -2.30192e-014 2.46404e-014 -3.27498e-013 27.394 -11.087 18.4076 -15.1922 -7.95776 27.985 -0.229979 13.5317 1.9383 -5.02115e-010 1.05238e-009 2.12102e-010 -8.65764e-010 1.82307e-009 3.79373e-010 -5.02109e-010 1.05238e-009 2.12079e-010 7.73091 5.47488 0.417314 -5.02116e-010 1.05238e-009 2.12102e-010 2.90554 0.965183 0.102902 -5.02104e-010 1.05238e-009 2.12099e-010 10.2786 0.731801 0.0259123 -5.02118e-010 1.05238e-009 2.12102e-010 2.22167 -0.733487 -0.20892 -2.31005e-014 2.46584e-014 -3.27697e-013 -19.6986 -9.56919 28.8102 14.1898 -7.10865 -25.9367 2.98186 -43.0654 7.54801 7.53617e-011 -1.04106e-010 8.19594e-010 1.09048e-010 -1.84221e-010 1.41776e-009 7.53549e-011 -1.04109e-010 8.19607e-010 -7.73091 5.47488 -0.417314 7.5362e-011 -1.04109e-010 8.19597e-010 -2.90554 0.965183 -0.102902 7.5363e-011 -1.04109e-010 8.196e-010 -10.2786 0.731801 -0.0259123 7.53664e-011 -1.04104e-010 8.19591e-010 -2.22167 -0.733487 0.20892 -2.03217e-016 0 -3.88251e-019 -5.52662 1.22859 7.49603 0.10946 19.5352 1.08563 -37.5553 -29.7694 -56.1015 2.03217e-016 0 3.88251e-019 9.26585 -36.9442 -15.9613 0.327989 40.0451 -0.872113 -1.18557 -12.121 -5.07111 
60.2608 81.075 10.794 3.78534 7.94197 -55.1414 5.97172 -0.404652 25.8505 -1.06674 4.03226 7.46253 -7.21765 10.5253 -8.83191 9.74954 -17.303 -15.2471 -0 0 0 -0 0 0 -2.96938e-014 9.00255e-015 -4.29828e-013 26.2338 -12.2247 16.2805 -14.8573 -7.67142 27.2875 -0.228133 13.455 1.92704 -5.14614e-010 8.62225e-010 -1.25756e-009 -9.02677e-010 1.48505e-009 -2.16242e-009 -5.14608e-010 8.62229e-010 -1.25758e-009 7.73091 5.47488 0.417314 -5.14614e-010 8.62226e-010 -1.25756e-009 2.90554 0.965183 0.102902 -5.14602e-010 8.62225e-010 -1.25756e-009 10.2786 0.731801 0.0259123 -5.14617e-010 8.62228e-010 -1.25756e-009 2.22167 -0.733487 -0.20892 -2.97484e-014 9.02491e-015 -4.3e-013 -18.1592 -9.39715 27.6179 14.3405 -7.23306 -26.2406 3.02231 -43.2864 7.60702 -9.59995e-010 -1.6903e-009 9.79677e-010 -1.68165e-009 -2.88372e-009 1.65672e-009 -9.6e-010 -1.6903e-009 9.7969e-010 -7.73091 5.47488 -0.417314 -9.59995e-010 -1.6903e-009 9.7968e-010 -2.90554 0.965183 -0.102902 -9.59995e-010 -1.6903e-009 9.79682e-010 -10.2786 0.731801 -0.0259123 -9.59991e-010 -1.6903e-009 9.79673e-010 -2.22167 -0.733487 0.20892 -2.03217e-016 0 -3.88251e-019 -6.15678 -0.796329 7.50748 0.10963 20.0277 1.06982 -38.1209 -30.2447 -56.1828 2.03217e-016 0 3.88251e-019 10.3844 -35.9093 -13.9622 0.310295 39.0703 -0.844114 -0.664302 -12.0002 -3.43807 
60.3152 81.3175 10.4759 4.5375 7.69278 -58.135 5.01356 -0.543318 23.563 -0.49716 4.20101 6.79558 -8.02496 11.4948 -9.96264 11.6289 -17.9596 -17.1809 -0 0 0 -0 0 0 -5.59926e-014 -2.39168e-014 -4.96049e-013 25.1019 -13.3122 14.0952 -14.47 -7.34677 26.4907 -0.226598 13.3691 1.91457 -4.34213e-010 1.92662e-010 -3.51054e-009 -7.86889e-010 3.12594e-010 -6.06136e-009 -4.34208e-010 1.92665e-010 -3.51056e-009 7.73091 5.47488 0.417314 -4.34213e-010 1.92662e-010 -3.51054e-009 2.90554 0.965183 0.102902 -4.34202e-010 1.92661e-010 -3.51054e-009 10.2786 0.731801 0.0259123 -4.34217e-010 1.92665e-010 -3.51054e-009 2.22167 -0.733487 -0.20892 -5.59922e-014 -2.38907e-014 -4.96185e-013 -16.5885 -9.26073 26.4425 14.5022 -7.36778 -26.5683 3.06102 -43.4953 7.66324 -2.66549e-009 -3.91718e-009 1.20832e-009 -4.63207e-009 -6.67055e-009 1.99081e-009 -2.66549e-009 -3.91718e-009 1.20833e-009 -7.73091 5.47488 -0.417314 -2.66549e-009 -3.91718e-009 1.20832e-009 -2.90554 0.965183 -0.102902 -2.66549e-009 -3.91718e-009 1.20832e-009 -10.2786 0.731801 -0.0259123 -2.66549e-009 -3.91717e-009 1.20831e-009 -2.22167 -0.733487 0.20892 -2.03217e-016 0 -3.88251e-019 -6.78145 -2.7827 7.32589 0.10871 20.4331 1.05347 -38.5322 -30.6755 -56.1716 2.03217e-016 0 3.88251e-019 11.4274 -34.8736 -11.9283 0.294671 38.1212 -0.814909 -0.210981 -11.7876 -1.99618 
60.3812 81.5321 10.1299 5.25373 7.3731 -61.1095 4.07757 -0.689063 21.2385 0.0738117 4.35991 6.1167 -8.70238 12.3943 -10.9837 13.2251 -18.4423 -18.9404 -0 0 0 -0 0 0 -8.61076e-014 -5.87983e-014 -5.24919e-013 23.974 -14.2202 11.8175 -14.1176 -7.05458 25.7813 -0.218499 13.1258 1.87848 -3.82739e-010 -5.79535e-010 -5.51586e-009 -7.18672e-010 -1.03508e-009 -9.53202e-009 -3.82734e-010 -5.79533e-010 -5.51588e-009 7.73091 5.47488 0.417314 -3.82739e-010 -5.79535e-010 -5.51587e-009 2.90554 0.965183 0.102902 -3.82729e-010 -5.79535e-010 -5.51587e-009 10.2786 0.731801 0.0259123 -3.82744e-010 -5.79531e-010 -5.51587e-009 2.22167 -0.733487 -0.20892 -8.60531e-014 -5.87701e-014 -5.25027e-013 -15.0713 -9.25552 25.1928 14.6576 -7.49814 -26.8853 3.10455 -43.7286 7.72635 -4.20882e-009 -5.77417e-009 1.38664e-009 -7.3014e-009 -9.82975e-009 2.24401e-009 -4.20882e-009 -5.77417e-009 1.38665e-009 -7.73091 5.47488 -0.417314 -4.20882e-009 -5.77417e-009 1.38664e-009 -2.90554 0.965183 -0.102902 -4.20882e-009 -5.77417e-009 1.38664e-009 -10.2786 0.731801 -0.0259123 -4.20882e-009 -5.77417e-009 1.38663e-009 -2.22167 -0.733487 0.20892 -2.03217e-016 0 -3.88251e-019 -7.42496 -4.68415 7.1443 0.106506 20.7631 1.03147 -38.4744 -30.8801 -55.8996 2.03217e-016 0 3.88251e-019 12.3987 -33.7943 -9.86701 0.280737 37.1989 -0.78547 0.191686 -11.5509 -0.67925 
60.4231 81.7025 9.74164 5.92189 6.96659 -64.1216 3.16845 -0.820379 18.9693 0.615633 4.48383 5.45465 -9.22439 13.1228 -11.8459 14.4422 -18.8089 -20.4504 -0 0 0 -0 0 0 -1.04231e-013 -8.03226e-014 -5.152e-013 22.8454 -14.8148 9.41739 -13.8956 -6.87054 25.3442 -0.198001 12.5763 1.79673 -4.82018e-010 -1.07759e-009 -6.24255e-009 -8.98297e-010 -1.89877e-009 -1.07889e-008 -4.82013e-010 -1.07759e-009 -6.24257e-009 7.73091 5.47488 0.417314 -4.82017e-010 -1.07759e-009 -6.24256e-009 2.90554 0.965183 0.102902 -4.82008e-010 -1.07759e-009 -6.24256e-009 10.2786 0.731801 0.0259123 -4.82023e-010 -1.07759e-009 -6.24255e-009 2.22167 -0.733487 -0.20892 -1.04152e-013 -8.0295e-014 -5.153e-013 -13.7008 -9.47913 23.7759 14.7899 -7.60988 -27.1574 3.15991 -44.0229 7.80646 -4.75767e-009 -6.25071e-009 1.39576e-009 -8.24884e-009 -1.06464e-008 2.24028e-009 -4.75767e-009 -6.2507e-009 1.39577e-009 -7.73091 5.47488 -0.417314 -4.75767e-009 -6.25071e-009 1.39576e-009 -2.90554 0.965183 -0.102902 -4.75768e-009 -6.25071e-009 1.39576e-009 -10.2786 0.731801 -0.0259123 -4.75767e-009 -6.25071e-009 1.39575e-009 -2.22167 -0.733487 0.20892 -2.03217e-016 0 -3.88251e-019 -8.08503 -6.45097 7.15629 0.102937 21.0292 0.998716 -37.6389 -30.667 -55.2009 2.03217e-016 0 3.88251e-019 13.2958 -32.629 -7.79 0.26803 36.3045 -0.75672 0.566745 -11.3566 0.580178 
60.43 81.8517 9.34727 6.61655 6.04228 -67.0888 2.2471 -0.926391 16.7963 1.11929 4.55655 4.82194 -9.55129 13.6408 -12.5326 15.1922 -19.0506 -21.7058 -0 0 0 -0 0 0 -1.07053e-013 -1.23034e-013 -4.44392e-013 21.7448 -14.9319 6.81713 -13.8571 -6.83704 25.2729 -0.161814 11.5359 1.64294 -8.44658e-010 -9.89882e-010 -4.91136e-009 -1.51282e-009 -1.73246e-009 -8.48258e-009 -8.44654e-010 -9.8988e-010 -4.91138e-009 7.73091 5.47488 0.417314 -8.44657e-010 -9.89881e-010 -4.91137e-009 2.90554 0.965183 0.102902 -8.44649e-010 -9.89881e-010 -4.91136e-009 10.2786 0.731801 0.0259123 -8.44662e-010 -9.89879e-010 -4.91136e-009 2.22167 -0.733487 -0.20892 -1.06993e-013 -1.23012e-013 -4.44512e-013 -12.4273 -10.0149 22.1436 14.9009 -7.70455 -27.3856 3.24764 -44.4813 7.93268 -3.70475e-009 -4.34183e-009 1.14872e-009 -6.4233e-009 -7.40545e-009 1.85099e-009 -3.70475e-009 -4.34183e-009 1.14873e-009 -7.73091 5.47488 -0.417314 -3.70475e-009 -4.34183e-009 1.14872e-009 -2.90554 0.965183 -0.102902 -3.70476e-009 -4.34183e-009 1.14872e-009 -10.2786 0.731801 -0.0259123 -3.70475e-009 -4.34183e-009 1.14871e-009 -2.22167 -0.733487 0.20892 -2.03217e-016 0 -3.88251e-019 -8.76352 -8.03479 7.48118 0.097755 21.2077 0.952304 -35.9206 -29.8572 -54.0875 2.03217e-016 0 3.88251e-019 14.1125 -31.3855 -5.63515 0.256667 35.4501 -0.72872 0.899798 -11.2315 1.7163 
60.4441 81.9883 8.98612 7.25509 4.88783 -70.0439 1.32734 -1.01844 14.6647 1.59933 4.59445 4.20171 -9.72781 14.0119 -13.0659 15.5749 -19.1614 -22.7326 -0 0 0 -0 0 0 -1.02703e-013 -1.82227e-013 -3.20547e-013 20.7418 -14.6636 4.07243 -13.9471 -6.90948 25.453 -0.121387 10.1318 1.43796 -1.37898e-009 -5.8774e-010 -2.24025e-009 -2.41089e-009 -1.01113e-009 -3.85638e-009 -1.37898e-009 -5.87739e-010 -2.24026e-009 7.73091 5.47488 0.417314 -1.37898e-009 -5.87739e-010 -2.24025e-009 2.90554 0.965183 0.102902 -1.37897e-009 -5.87739e-010 -2.24025e-009 10.2786 0.731801 0.0259123 -1.37898e-009 -5.87738e-010 -2.24024e-009 2.22167 -0.733487 -0.20892 -1.02688e-013 -1.82213e-013 -3.20705e-013 -11.2639 -10.8019 20.3497 14.9979 -7.78836 -27.5847 3.36066 -45.0528 8.0934 -1.6224e-009 -8.31665e-010 7.27338e-010 -2.81549e-009 -1.44088e-009 1.19727e-009 -1.6224e-009 -8.31658e-010 7.27343e-010 -7.73091 5.47488 -0.417314 -1.6224e-009 -8.31668e-010 7.27335e-010 -2.90554 0.965183 -0.102902 -1.62241e-009 -8.31661e-010 7.27336e-010 -10.2786 0.731801 -0.0259123 -1.6224e-009 -8.31659e-010 7.27326e-010 -2.22167 -0.733487 0.20892 -2.03217e-016 0 -3.88251e-019 -9.43674 -9.47023 7.9936 0.090994 21.3014 0.895473 -33.5501 -28.5491 -52.6879 2.03217e-016 0 3.88251e-019 14.8344 -30.0775 -3.4239 0.246684 34.6313 -0.700889 1.19078 -11.1399 2.72214 
